<mxfile host="app.diagrams.net" modified="2024-03-20T04:35:18.566Z" agent="Mozilla/5.0 (Windows NT 10.0; Win64; x64) AppleWebKit/537.36 (KHTML, like Gecko) Chrome/122.0.0.0 Safari/537.36 Edg/122.0.0.0" etag="QtT25JigUJ2EQEEw25Ge" version="24.0.7" type="device">
  <diagram name="Page-1" id="mIpKdLb9GoZ2KvOCsD4Z">
    <mxGraphModel dx="1626" dy="797" grid="1" gridSize="10" guides="1" tooltips="1" connect="1" arrows="1" fold="1" page="1" pageScale="1" pageWidth="3300" pageHeight="4681" math="0" shadow="0">
      <root>
        <mxCell id="0" />
        <mxCell id="1" parent="0" />
        <mxCell id="iZxJ6OD_tzrfJk0-qyoa-3" style="edgeStyle=orthogonalEdgeStyle;rounded=0;orthogonalLoop=1;jettySize=auto;html=1;entryX=0.5;entryY=0;entryDx=0;entryDy=0;" edge="1" parent="1" source="iZxJ6OD_tzrfJk0-qyoa-1" target="iZxJ6OD_tzrfJk0-qyoa-2">
          <mxGeometry relative="1" as="geometry" />
        </mxCell>
        <mxCell id="iZxJ6OD_tzrfJk0-qyoa-1" value="/home" style="rounded=0;whiteSpace=wrap;html=1;" vertex="1" parent="1">
          <mxGeometry x="610" y="160" width="120" height="60" as="geometry" />
        </mxCell>
        <mxCell id="iZxJ6OD_tzrfJk0-qyoa-7" style="edgeStyle=orthogonalEdgeStyle;rounded=0;orthogonalLoop=1;jettySize=auto;html=1;entryX=0.5;entryY=0;entryDx=0;entryDy=0;" edge="1" parent="1" source="iZxJ6OD_tzrfJk0-qyoa-2" target="iZxJ6OD_tzrfJk0-qyoa-6">
          <mxGeometry relative="1" as="geometry" />
        </mxCell>
        <mxCell id="iZxJ6OD_tzrfJk0-qyoa-8" style="edgeStyle=orthogonalEdgeStyle;rounded=0;orthogonalLoop=1;jettySize=auto;html=1;entryX=0.5;entryY=0;entryDx=0;entryDy=0;" edge="1" parent="1" target="iZxJ6OD_tzrfJk0-qyoa-4">
          <mxGeometry relative="1" as="geometry">
            <mxPoint x="670" y="350" as="sourcePoint" />
          </mxGeometry>
        </mxCell>
        <mxCell id="iZxJ6OD_tzrfJk0-qyoa-9" style="edgeStyle=orthogonalEdgeStyle;rounded=0;orthogonalLoop=1;jettySize=auto;html=1;entryX=0.5;entryY=0;entryDx=0;entryDy=0;exitX=0.5;exitY=1;exitDx=0;exitDy=0;" edge="1" parent="1" source="iZxJ6OD_tzrfJk0-qyoa-2" target="iZxJ6OD_tzrfJk0-qyoa-5">
          <mxGeometry relative="1" as="geometry">
            <Array as="points">
              <mxPoint x="670" y="350" />
              <mxPoint x="860" y="350" />
            </Array>
          </mxGeometry>
        </mxCell>
        <mxCell id="iZxJ6OD_tzrfJk0-qyoa-2" value="/revaniputeri" style="rounded=0;whiteSpace=wrap;html=1;" vertex="1" parent="1">
          <mxGeometry x="610" y="270" width="120" height="60" as="geometry" />
        </mxCell>
        <mxCell id="iZxJ6OD_tzrfJk0-qyoa-12" style="edgeStyle=orthogonalEdgeStyle;rounded=0;orthogonalLoop=1;jettySize=auto;html=1;entryX=0.5;entryY=0;entryDx=0;entryDy=0;" edge="1" parent="1" source="iZxJ6OD_tzrfJk0-qyoa-4" target="iZxJ6OD_tzrfJk0-qyoa-11">
          <mxGeometry relative="1" as="geometry" />
        </mxCell>
        <mxCell id="iZxJ6OD_tzrfJk0-qyoa-13" style="edgeStyle=orthogonalEdgeStyle;rounded=0;orthogonalLoop=1;jettySize=auto;html=1;" edge="1" parent="1" source="iZxJ6OD_tzrfJk0-qyoa-4" target="iZxJ6OD_tzrfJk0-qyoa-10">
          <mxGeometry relative="1" as="geometry" />
        </mxCell>
        <mxCell id="iZxJ6OD_tzrfJk0-qyoa-4" value="/A" style="rounded=0;whiteSpace=wrap;html=1;" vertex="1" parent="1">
          <mxGeometry x="370" y="390" width="120" height="60" as="geometry" />
        </mxCell>
        <mxCell id="iZxJ6OD_tzrfJk0-qyoa-5" value="/C" style="rounded=0;whiteSpace=wrap;html=1;" vertex="1" parent="1">
          <mxGeometry x="800" y="380" width="120" height="60" as="geometry" />
        </mxCell>
        <mxCell id="iZxJ6OD_tzrfJk0-qyoa-17" style="edgeStyle=orthogonalEdgeStyle;rounded=0;orthogonalLoop=1;jettySize=auto;html=1;entryX=0.5;entryY=0;entryDx=0;entryDy=0;" edge="1" parent="1" source="iZxJ6OD_tzrfJk0-qyoa-6" target="iZxJ6OD_tzrfJk0-qyoa-16">
          <mxGeometry relative="1" as="geometry" />
        </mxCell>
        <mxCell id="iZxJ6OD_tzrfJk0-qyoa-6" value="/B" style="rounded=0;whiteSpace=wrap;html=1;" vertex="1" parent="1">
          <mxGeometry x="610" y="380" width="120" height="60" as="geometry" />
        </mxCell>
        <mxCell id="iZxJ6OD_tzrfJk0-qyoa-10" value="/E" style="rounded=0;whiteSpace=wrap;html=1;" vertex="1" parent="1">
          <mxGeometry x="450" y="510" width="120" height="60" as="geometry" />
        </mxCell>
        <mxCell id="iZxJ6OD_tzrfJk0-qyoa-15" style="edgeStyle=orthogonalEdgeStyle;rounded=0;orthogonalLoop=1;jettySize=auto;html=1;entryX=0.5;entryY=0;entryDx=0;entryDy=0;" edge="1" parent="1" source="iZxJ6OD_tzrfJk0-qyoa-11" target="iZxJ6OD_tzrfJk0-qyoa-14">
          <mxGeometry relative="1" as="geometry" />
        </mxCell>
        <mxCell id="iZxJ6OD_tzrfJk0-qyoa-11" value="/D" style="rounded=0;whiteSpace=wrap;html=1;" vertex="1" parent="1">
          <mxGeometry x="290" y="510" width="120" height="60" as="geometry" />
        </mxCell>
        <mxCell id="iZxJ6OD_tzrfJk0-qyoa-14" value="/A" style="rounded=0;whiteSpace=wrap;html=1;" vertex="1" parent="1">
          <mxGeometry x="290" y="630" width="120" height="60" as="geometry" />
        </mxCell>
        <mxCell id="iZxJ6OD_tzrfJk0-qyoa-16" value="/F" style="rounded=0;whiteSpace=wrap;html=1;" vertex="1" parent="1">
          <mxGeometry x="610" y="510" width="120" height="60" as="geometry" />
        </mxCell>
      </root>
    </mxGraphModel>
  </diagram>
</mxfile>
